<svg id="SvgjsSvg1014" width="288" height="288" xmlns="http://www.w3.org/2000/svg" version="1.1" xmlns:xlink="http://www.w3.org/1999/xlink" xmlns:svgjs="http://svgjs.com/svgjs"><defs id="SvgjsDefs1015"></defs><g id="SvgjsG1016"><svg xmlns="http://www.w3.org/2000/svg" viewBox="0 0 24 24" width="288" height="288"><g fill="none" stroke="#ff0000" stroke-linecap="round" stroke-linejoin="round" stroke-miterlimit="10" class="colorStroke303C42 svgStroke"><path d="M22 21.5H2A1.5 1.5 0 0 1 .5 20V9A1.5 1.5 0 0 1 2 7.5h20A1.5 1.5 0 0 1 23.5 9v11a1.5 1.5 0 0 1-1.5 1.5z" fill="#ffffff" class="color000 svgShape"></path><circle cx="12" cy="3" r=".5" fill="#ffffff" class="color000 svgShape"></circle><path d="M7.5 7.5L12 3l4.5 4.5M18 12.5h-2v4h2M16 14.5h1.5M10 16.5a1 1 0 001-1v-2a1 1 0 10-2 0v2a1 1 0 001 1zM4.5 13.5a1 1 0 10-2 0v2a1 1 0 102 0M14.5 12.5h-1a1 1 0 100 2 1 1 0 110 2h-1M20.5 16.5h-1v-4h1a1 1 0 011 1v2a1 1 0 01-1 1zM6 12.5v4h2" fill="#ffffff" class="color000 svgShape"></path></g></svg></g></svg>