<svg xmlns="http://www.w3.org/2000/svg" viewBox="0 0 64 64"><g data-name="Layer 2"><path fill="#ffd746" d="M50.82,16.43A1,1,0,0,0,50,16H17a1,1,0,0,0-.93.64l-5,13A.92.92,0,0,0,11,30V60a1,1,0,0,0,1,1H45a1,1,0,0,0,1-1V30.19l4.93-12.83A1,1,0,0,0,50.82,16.43Z"/><path fill="#d38200" d="M46,2H21a5,5,0,0,0-5,5V17a1,1,0,0,0,1,1H50a1,1,0,0,0,1-1V7A5,5,0,0,0,46,2ZM45,12a1,1,0,0,1-1,1H23a1,1,0,0,1-1-1V8a1,1,0,0,1,1-1H44a1,1,0,0,1,1,1Z"/><path fill="#ffa605" d="M50.93,17.36a1,1,0,0,0-.11-.93A1,1,0,0,0,50,16H17a1,1,0,0,0-.93.64l-5,13A.92.92,0,0,0,11,30H46.07Z"/><path fill="#d38200" d="M55.93,29.64l-5-13a1,1,0,0,0-1.86,0l-5,13A.92.92,0,0,0,44,30V60a1,1,0,0,0,1.37.93L50,59.08l4.63,1.85A1,1,0,0,0,56,60V30A.92.92,0,0,0,55.93,29.64Z"/><path fill="#8a8a8a" d="M30.33,35.73A2,2,0,0,0,28.78,35H27.22a2,2,0,0,0-1.55.73,2,2,0,0,0-.41,1.66l.56,2.81a1,1,0,0,0,1,.8h0l2.42-.09a1,1,0,0,0,.94-.81l.54-2.71A2,2,0,0,0,30.33,35.73Z"/><path fill="#bcbcbc" d="M28,39A11,11,0,0,0,17,50v2a1,1,0,0,0,1,1H38a1,1,0,0,0,1-1V50A11,11,0,0,0,28,39Z"/><path fill="#aaa" d="M29.06,39.05A11.8,11.8,0,0,1,36,49.79v2.14A1.07,1.07,0,0,1,34.93,53H38a1,1,0,0,0,1-1V50A11,11,0,0,0,29.06,39.05Z"/><rect width="26" height="2" x="15" y="51" fill="#8a8a8a"/></g></svg>