<svg xmlns="http://www.w3.org/2000/svg" width="32" height="32" viewBox="0 0 8.467 8.467"><g transform="translate(0 -288.533)"><path style="line-height:normal;text-indent:0;text-align:start;text-decoration-line:none;text-decoration-style:solid;text-decoration-color:#000;text-transform:none;block-progression:tb;white-space:normal;isolation:auto;mix-blend-mode:normal;solid-color:#000;solid-opacity:1" fill-rule="evenodd" d="m 4.9296875,289.5918 c -0.2486338,0 -0.4882598,0.0996 -0.6640625,0.27539 l -3.27734375,3.27539 c -0.26023006,0.26023 -0.26023006,0.68703 0,0.94726 l 1.65820315,1.65625 c 0.26023,0.26023 0.6850825,0.26023 0.9453125,0 l 3.2773437,-3.27734 c 0.1758035,-0.1758 0.2753861,-0.41349 0.2753906,-0.66211 l 0,-2.08203 A 0.1323049,0.1323049 0 0 0 7.0117188,289.5918 l -2.0820313,0 z m 0,0.26367 1.9492187,0 0,1.95117 c -3.3e-6,0.17856 -0.071008,0.35031 -0.1972656,0.47656 l -3.2773437,3.27539 c -0.1591198,0.15912 -0.4131459,0.15912 -0.5722657,0 l -1.65625,-1.65625 c -0.1591198,-0.15912 -0.1591198,-0.41314 0,-0.57226 l 3.2773438,-3.27735 c 0.126257,-0.12626 0.2980001,-0.19726 0.4765625,-0.19726 z" color="#000" enable-background="accumulate" font-family="sans-serif" font-weight="400" overflow="visible"/><path style="line-height:normal;text-indent:0;text-align:start;text-decoration-line:none;text-decoration-style:solid;text-decoration-color:#000;text-transform:none;block-progression:tb;white-space:normal;isolation:auto;mix-blend-mode:normal;solid-color:#000;solid-opacity:1" d="m 5.5585938,290.51953 c -0.1800628,0.18004 -0.1800542,0.47621 0,0.65625 0.1800506,0.18004 0.4762223,0.18006 0.65625,0 0.1800096,-0.18004 0.1800156,-0.47622 0,-0.65625 -0.1800287,-0.18004 -0.4762061,-0.18002 -0.65625,0 z m 0.1875,0.1875 c 0.07893,-0.0789 0.2023267,-0.0789 0.28125,0 0.078917,0.0789 0.078915,0.20428 0,0.2832 -0.078923,0.0789 -0.2023168,0.0789 -0.28125,0 -0.078935,-0.0789 -0.078939,-0.20427 0,-0.2832 z" color="#000" enable-background="accumulate" font-family="sans-serif" font-weight="400" overflow="visible"/><path style="line-height:normal;text-indent:0;text-align:start;text-decoration-line:none;text-decoration-style:solid;text-decoration-color:#000;text-transform:none;block-progression:tb;white-space:normal;isolation:auto;mix-blend-mode:normal;solid-color:#000;solid-opacity:1" fill-rule="evenodd" d="m 6.1523438,290.7168 0,0.26367 1.5214843,0 0,-0.26367 -1.5214843,0 z" color="#000" enable-background="accumulate" font-family="sans-serif" font-weight="400" overflow="visible"/><path style="line-height:normal;text-indent:0;text-align:start;text-decoration-line:none;text-decoration-style:solid;text-decoration-color:#000;text-transform:none;block-progression:tb;white-space:normal;isolation:auto;mix-blend-mode:normal;solid-color:#000;solid-opacity:1" d="m 4.3046875,292.12695 c -0.2422585,-0.15567 -0.5614649,-0.13206 -0.7089844,0.0957 -0.076085,0.11429 -0.1019191,0.24678 -0.078125,0.36718 0.023915,0.12102 0.091601,0.22884 0.1835938,0.31446 a 0.13230487,0.13230487 0 0 0 0.00195,0.002 c 0.1379154,0.12272 0.1664258,0.29958 0.109375,0.38867 -0.05704,0.0891 -0.1921118,0.11511 -0.34375,0.0176 -0.1516644,-0.0976 -0.2195011,-0.28494 -0.1816406,-0.39453 a 0.13230487,0.13230487 0 1 0 -0.25,-0.0859 c -0.089274,0.25841 0.046195,0.5469 0.2890625,0.70313 0.2428903,0.15621 0.563976,0.1319 0.7109375,-0.0977 0.1469768,-0.22951 0.0607,-0.53547 -0.15625,-0.72852 -0.056889,-0.0537 -0.092537,-0.11436 -0.1035156,-0.16992 -0.011127,-0.0563 -0.00211,-0.1086 0.039062,-0.16992 a 0.13230487,0.13230487 0 0 0 0,-0.004 c 0.057041,-0.0891 0.1939911,-0.11311 0.3457032,-0.0156 0.1516438,0.0976 0.2194936,0.283 0.1816406,0.39258 a 0.13230487,0.13230487 0 1 0 0.25,0.0859 c 0.089263,-0.2584 -0.046226,-0.54493 -0.2890625,-0.70117 z" color="#000" enable-background="accumulate" font-family="sans-serif" font-weight="400" overflow="visible"/><path style="line-height:normal;text-indent:0;text-align:start;text-decoration-line:none;text-decoration-style:solid;text-decoration-color:#000;text-transform:none;block-progression:tb;white-space:normal;isolation:auto;mix-blend-mode:normal;solid-color:#000;solid-opacity:1" d="M3.2363281 293.25977a.13230487.13230487 0 00-.076172.0391l-.2792968.27929a.13230487.13230487 0 10.1875.18555l.2773437-.27734a.13230487.13230487 0 00-.109375-.22656zM4.6542969 291.85547a.13230487.13230487 0 00-.091797.041l-.2773438.27735a.13230487.13230487 0 10.1855469.1875L4.75 292.08398a.13230487.13230487 0 00-.095703-.22851z" color="#000" enable-background="accumulate" font-family="sans-serif" font-weight="400" overflow="visible"/></g></svg>